<?xml version="1.0" encoding="UTF-8" standalone="no"?>
<!-- Generator: Adobe Illustrator 16.0.0, SVG Export Plug-In . SVG Version: 6.00 Build 0)  -->

<svg
   xmlns:dc="http://purl.org/dc/elements/1.1/"
   xmlns:cc="http://creativecommons.org/ns#"
   xmlns:rdf="http://www.w3.org/1999/02/22-rdf-syntax-ns#"
   xmlns:svg="http://www.w3.org/2000/svg"
   xmlns="http://www.w3.org/2000/svg"
   xmlns:sodipodi="http://sodipodi.sourceforge.net/DTD/sodipodi-0.dtd"
   xmlns:inkscape="http://www.inkscape.org/namespaces/inkscape"
   version="1.1"
   id="Capa_1"
   x="0px"
   y="0px"
   width="30"
   height="30"
   viewBox="0 0 30 30"
   xml:space="preserve"
   sodipodi:docname="ring-locked-padlock.svg"
   inkscape:version="0.92.4 (5da689c313, 2019-01-14)"><metadata
   id="metadata3733"><rdf:RDF><cc:Work
       rdf:about=""><dc:format>image/svg+xml</dc:format><dc:type
         rdf:resource="http://purl.org/dc/dcmitype/StillImage" /><dc:title></dc:title></cc:Work></rdf:RDF></metadata><defs
   id="defs3731" /><sodipodi:namedview
   pagecolor="#ffffff"
   bordercolor="#666666"
   borderopacity="1"
   objecttolerance="10"
   gridtolerance="10"
   guidetolerance="10"
   inkscape:pageopacity="0"
   inkscape:pageshadow="2"
   inkscape:window-width="958"
   inkscape:window-height="1008"
   id="namedview3729"
   showgrid="false"
   fit-margin-left="2.7755576e-17"
   inkscape:zoom="13.934019"
   inkscape:cx="13.893929"
   inkscape:cy="8.4147653"
   inkscape:window-x="953"
   inkscape:window-y="0"
   inkscape:window-maximized="0"
   inkscape:current-layer="Capa_1" />

<ellipse
   id="path3735"
   cx="14.973387"
   cy="15"
   rx="14.127278"
   ry="14.152815"
   style="fill:none;stroke:#000000;stroke-width:1.05644381;stroke-miterlimit:4;stroke-dasharray:none;stroke-opacity:1" /><g
   id="g4641"
   transform="matrix(0.03196825,0,0,0.0321737,6.9256989,7.3803003)"><g
     id="g4585">
	<path
   id="path4583"
   d="m 403.88,196.563 h -9.484 V 152.175 C 394.396,70.076 329.245,1.494 247.814,0.03 c -2.225,-0.04 -6.671,-0.04 -8.895,0 C 157.486,1.494 92.336,70.076 92.336,152.175 v 44.388 h -9.485 c -14.616,0 -26.538,15.082 -26.538,33.709 v 222.632 c 0,18.606 11.922,33.829 26.539,33.829 H 403.88 c 14.616,0 26.539,-15.223 26.539,-33.829 V 230.272 c 0,-18.626 -11.922,-33.709 -26.539,-33.709 z M 273.442,341.362 v 67.271 c 0,7.703 -6.449,14.222 -14.158,14.222 H 227.45 c -7.71,0 -14.159,-6.519 -14.159,-14.222 v -67.271 c -7.477,-7.36 -11.83,-17.537 -11.83,-28.795 0,-21.334 16.491,-39.666 37.459,-40.513 2.222,-0.09 6.673,-0.09 8.895,0 20.968,0.847 37.459,19.179 37.459,40.513 -0.002,11.258 -4.355,21.435 -11.832,28.795 z m 58.444,-144.799 h -84.072 -8.895 -84.072 v -44.388 c 0,-48.905 39.744,-89.342 88.519,-89.342 48.775,0 88.521,40.437 88.521,89.342 v 44.388 z"
   inkscape:connector-curvature="0" />
</g><g
     id="g4587">
</g><g
     id="g4589">
</g><g
     id="g4591">
</g><g
     id="g4593">
</g><g
     id="g4595">
</g><g
     id="g4597">
</g><g
     id="g4599">
</g><g
     id="g4601">
</g><g
     id="g4603">
</g><g
     id="g4605">
</g><g
     id="g4607">
</g><g
     id="g4609">
</g><g
     id="g4611">
</g><g
     id="g4613">
</g><g
     id="g4615">
</g></g></svg>